<svg xmlns="http://www.w3.org/2000/svg" width="128.273" height="128.27" viewBox="0 0 128.273 128.27"><g transform="translate(0.264 0.044)"><path d="M47.5,0A47.5,47.5,0,1,1,0,47.5,47.5,47.5,0,0,1,47.5,0Z" transform="translate(16.736 16.956)" fill="#efefef"/><path d="M123.687,40.969a1.748,1.748,0,0,0-1.631-1.118h-2.4a1.659,1.659,0,0,0-.256.019l-12.7-.07h-.01a1.749,1.749,0,0,0-1.546,2.567,46.611,46.611,0,1,1-19.59-19.542L82.739,25.64a1.75,1.75,0,0,0,0,2.474l6.532,6.533a1.749,1.749,0,0,0,1.226.513l21.09.14h.012a1.752,1.752,0,0,0,1.75-1.762l-.141-21.09a1.749,1.749,0,0,0-.513-1.225L106.163,4.69a1.8,1.8,0,0,0-2.475,0l-5.331,5.332a64.132,64.132,0,1,0,25.33,30.947ZM64,124.5A60.5,60.5,0,1,1,97.614,13.719a1.75,1.75,0,0,0,2.212-.216l5.1-5.1,4.787,4.788.124,18.6-18.6-.123L86.45,26.88l3.215-3.215a1.749,1.749,0,0,0-.348-2.744,49.995,49.995,0,1,0,20.188,22.4l10.137.056c.088-.012.186-.007.277-.02h.925A60.446,60.446,0,0,1,64,124.5Z"/><path d="M64,34.127a1.749,1.749,0,0,0,1.75-1.75V24a1.75,1.75,0,0,0-3.5,0v8.375A1.749,1.749,0,0,0,64,34.127Z"/><path d="M64,105.742a1.749,1.749,0,0,0,1.75-1.75V95.617a1.75,1.75,0,0,0-3.5,0v8.375a1.749,1.749,0,0,0,1.75,1.75Z"/><path d="M40.4,42.875A1.751,1.751,0,0,0,42.878,40.4l-5.922-5.922a1.75,1.75,0,0,0-2.475,2.475Z"/><path d="M36.959,42.875A1.751,1.751,0,0,1,34.481,40.4L40.4,34.478a1.75,1.75,0,1,1,2.475,2.475Z" transform="translate(50)"/><path d="M91.044,93.516a1.75,1.75,0,1,0,2.475-2.475L87.6,85.119a1.75,1.75,0,0,0-2.475,2.475Z"/><path d="M35.719,94.028a1.746,1.746,0,0,0,1.237-.512l5.922-5.922A1.751,1.751,0,0,0,40.4,85.119l-5.922,5.922a1.75,1.75,0,0,0,1.238,2.987Z"/><path d="M32.38,62.247H24a1.75,1.75,0,0,0,0,3.5H32.38a1.75,1.75,0,1,0,0-3.5Z"/><path d="M95.62,65.747H104a1.75,1.75,0,1,0,0-3.5H95.62a1.75,1.75,0,0,0,0,3.5Z"/></g></svg>